# xmcd
#
# Track frame offsets:
#   150
#   23502
#   48100
#   71840
#   93777
#   118115
#   136882
#   154497
#
# Disc length: 2421 seconds
#
# Revision: 2
# Processed by: cddbd v1.5.1PL0 Copyright (c) Steve Scherf et al.
# Submitted via: Media_Universe 3.0
#
DISCID=62097308
DTITLE=Bryan Adams - The Best Of Me [CD2)
DYEAR=1900
DGENRE=Rock
TTITLE0=Summer Of '69 (Live From South Africa)
TTITLE1=Back To You (Live From South Africa)
TTITLE2=Can't Stop This Thing We Started (Live From South Africa)
TTITLE3=Have You Ever Realy Loved A Women? (Live From South Africa)
TTITLE4=Rock Steady (Live From South Africa)
TTITLE5=Cloud Number 9 (Live At The Stane Castle)
TTITLE6=I'm Ready (Live At The Stane Castle)
TTITLE7=Cuts Like A Knife (Live At The Stane Castle)
EXTD=
EXTT0=
EXTT1=
EXTT2=
EXTT3=
EXTT4=
EXTT5=
EXTT6=
EXTT7=
PLAYORDER=
